<?xml version="1.0"?>
<!DOCTYPE svg PUBLIC "-//W3C//DTD SVG 1.1//EN" "http://www.w3.org/Graphics/SVG/1.1/DTD/svg11.dtd">
<svg xmlns="http://www.w3.org/2000/svg" xmlns:xl="http://www.w3.org/1999/xlink" version="1.1" viewBox="6 100 45 46" width="45pt" height="46pt"><metadata xmlns:dc="http://purl.org/dc/elements/1.1/"><dc:date>2014-09-12 02:28Z</dc:date><!-- Produced by OmniGraffle Professional 5.4.4 --></metadata><defs></defs><g stroke="none" stroke-opacity="1" stroke-dasharray="none" fill="none" fill-opacity="1"><title>Canvas 1</title><g><title>Layer 1</title><path d="M 18.007875 111.96851 L 38.68504 111.96851 C 39.237326 111.96851 39.68504 112.41622 39.68504 112.96851 L 39.68504 133.64567 C 39.68504 134.19796 39.237326 134.64567 38.68504 134.64567 L 18.007875 134.64567 C 17.45559 134.64567 17.007875 134.19796 17.007875 133.64567 L 17.007875 112.96851 C 17.007875 112.41622 17.45559 111.96851 18.007875 111.96851 Z" fill="#6ca678"/><path d="M 18.007875 111.96851 L 38.68504 111.96851 C 39.237326 111.96851 39.68504 112.41622 39.68504 112.96851 L 39.68504 133.64567 C 39.68504 134.19796 39.237326 134.64567 38.68504 134.64567 L 18.007875 134.64567 C 17.45559 134.64567 17.007875 134.19796 17.007875 133.64567 L 17.007875 112.96851 C 17.007875 112.41622 17.45559 111.96851 18.007875 111.96851 Z" stroke="#398145" stroke-linecap="round" stroke-linejoin="round" stroke-width="2"/><line x1="21.259843" y1="123.30709" x2="35.433072" y2="123.30709" stroke="white" stroke-linecap="round" stroke-linejoin="round" stroke-width="3"/><line x1="28.346457" y1="116.220476" x2="28.346457" y2="130.393705" stroke="white" stroke-linecap="round" stroke-linejoin="round" stroke-width="3"/></g></g></svg>
