<?xml version="1.0"?>
<!DOCTYPE svg PUBLIC "-//W3C//DTD SVG 1.1//EN" "http://www.w3.org/Graphics/SVG/1.1/DTD/svg11.dtd">
<svg xmlns="http://www.w3.org/2000/svg" xmlns:xl="http://www.w3.org/1999/xlink" version="1.1" viewBox="6 65 45 46" width="45pt" height="46pt"><metadata xmlns:dc="http://purl.org/dc/elements/1.1/"><dc:date>2014-09-12 02:28Z</dc:date><!-- Produced by OmniGraffle Professional 5.4.4 --></metadata><defs></defs><g stroke="none" stroke-opacity="1" stroke-dasharray="none" fill="none" fill-opacity="1"><title>Canvas 1</title><g><title>Layer 1</title><path d="M 18.007874 76.535436 L 38.68504 76.535436 C 39.237325 76.535436 39.68504 76.98315 39.68504 77.535436 L 39.68504 98.2126 C 39.68504 98.764886 39.237325 99.2126 38.68504 99.2126 L 18.007874 99.2126 C 17.45559 99.2126 17.007874 98.764886 17.007874 98.2126 L 17.007874 77.535436 C 17.007874 76.98315 17.45559 76.535436 18.007874 76.535436 Z" fill="#d5686c"/><path d="M 18.007874 76.535436 L 38.68504 76.535436 C 39.237325 76.535436 39.68504 76.98315 39.68504 77.535436 L 39.68504 98.2126 C 39.68504 98.764886 39.237325 99.2126 38.68504 99.2126 L 18.007874 99.2126 C 17.45559 99.2126 17.007874 98.764886 17.007874 98.2126 L 17.007874 77.535436 C 17.007874 76.98315 17.45559 76.535436 18.007874 76.535436 Z" stroke="#bb4246" stroke-linecap="round" stroke-linejoin="round" stroke-width="2"/><line x1="22.677166" y1="82.204727" x2="34.015749" y2="93.54331" stroke="white" stroke-linecap="round" stroke-linejoin="round" stroke-width="3"/><line x1="34.015749" y1="82.204727" x2="22.677166" y2="93.54331" stroke="white" stroke-linecap="round" stroke-linejoin="round" stroke-width="3"/></g></g></svg>
